<svg width="345" height="362" viewBox="0 0 345 362" fill="none" xmlns="http://www.w3.org/2000/svg">
<path d="M192.895 295.04C191.262 298.487 190.464 301.974 190.501 305.5C190.556 308.987 191.439 312.179 193.149 315.076C194.878 317.933 197.427 320.16 200.796 321.756C204.204 323.37 207.561 323.941 210.867 323.468C214.192 322.956 217.221 321.617 219.954 319.45C222.706 317.245 224.898 314.419 226.53 310.972C228.163 307.525 228.952 304.058 228.896 300.57C228.841 297.083 227.959 293.891 226.248 290.994C224.538 288.098 221.979 285.843 218.571 284.228C215.202 282.632 211.855 282.09 208.53 282.602C205.206 283.114 202.177 284.453 199.444 286.62C196.71 288.787 194.527 291.593 192.895 295.04ZM169.426 283.924C172.067 278.347 175.532 273.634 179.821 269.786C184.166 265.917 189.012 263.044 194.359 261.167C199.705 259.289 205.295 258.499 211.129 258.797C217.001 259.112 222.784 260.619 228.477 263.315C234.286 266.067 239.153 269.605 243.079 273.93C247.044 278.274 249.974 283.099 251.87 288.407C253.804 293.733 254.613 299.284 254.295 305.061C254.034 310.817 252.583 316.484 249.941 322.061C247.282 327.676 243.837 332.446 239.608 336.37C235.397 340.255 230.628 343.165 225.302 345.099C220.033 347.013 214.462 347.812 208.59 347.497C202.718 347.181 196.799 345.61 190.835 342.785C184.716 339.887 179.655 336.257 175.652 331.895C171.687 327.552 168.796 322.744 166.977 317.473C165.177 312.164 164.466 306.658 164.843 300.957C165.238 295.217 166.766 289.539 169.426 283.924Z" fill="black"/>
<path d="M116.013 271.854L112.367 210.026L139.729 222.986L139.332 251.604L161.281 233.195L188.526 246.099L138.495 282.503L125.425 310.096L102.943 299.448L116.013 271.854Z" fill="black"/>
<path d="M67.923 188.975L89.94 199.404L85.2215 291.054L61.2294 279.69L62.6507 264.075L35.2893 251.116L24.0503 262.08L0.000134881 250.688L67.923 188.975ZM52.0865 235.174L64.344 240.979L66.3095 221.213L66.1352 221.13L52.0865 235.174Z" fill="black"/>
<path d="M254.11 211.006L263.91 266.147L234.458 252.196L230.323 222.784L205.818 238.631L178.689 225.781L225.354 197.386L217.45 150.255L246.147 163.848L248.368 187.091L267.699 174.056L295.061 187.016L254.11 211.006Z" fill="black"/>
<path d="M173.657 129.513L196.139 140.161L159.818 216.843L137.337 206.195L173.657 129.513Z" fill="black"/>
<path d="M95.2715 92.385L127.397 107.601C132.392 109.968 136.464 113.034 139.611 116.801C142.777 120.529 144.688 124.753 145.344 129.474C146.039 134.213 145.149 139.196 142.672 144.425C140.196 149.653 136.858 153.596 132.66 156.254C128.518 158.892 123.947 160.283 118.947 160.428C113.965 160.534 108.977 159.404 103.981 157.038L94.3374 152.47L81.4325 179.715L58.9508 169.067L95.2715 92.385ZM102.62 134.984L105.989 136.58C107.693 137.387 109.313 137.87 110.85 138.029C112.444 138.168 113.876 137.898 115.146 137.219C116.434 136.502 117.482 135.291 118.289 133.587C119.096 131.883 119.36 130.324 119.081 128.912C118.82 127.461 118.131 126.162 117.014 125.017C115.936 123.89 114.544 122.922 112.84 122.115L109.471 120.519L102.62 134.984Z" fill="black"/>
<path d="M300.075 124.443L308.601 177.771L281.82 165.086L276.933 123.297L261.662 155.538L239.18 144.89L275.501 68.208L297.983 78.8566L284.335 107.67L316.224 87.4965L341.494 99.4658L300.075 124.443Z" fill="black"/>
<path d="M209.641 37.0129L239.384 51.101C243.876 53.2288 247.718 55.8306 250.908 58.9063C254.116 61.9433 256.202 65.3972 257.166 69.2679C258.188 73.1182 257.616 77.3284 255.452 81.8983C254.076 84.8029 252.305 87.1409 250.138 88.9122C248.028 90.6632 245.676 91.8251 243.081 92.3979C240.525 92.9891 237.881 93.0166 235.147 92.4806C237.247 93.8544 239.006 95.4463 240.425 97.2562C241.862 99.0275 242.891 101.009 243.513 103.2C244.173 105.409 244.33 107.831 243.984 110.464C243.676 113.116 242.798 115.972 241.348 119.031C239.276 123.408 236.414 126.747 232.763 129.048C229.152 131.368 224.988 132.549 220.274 132.592C215.616 132.614 210.635 131.369 205.329 128.856L173.32 113.695L209.641 37.0129ZM204.28 106.595L207.417 108.08C209.082 108.869 210.597 109.374 211.963 109.594C213.386 109.793 214.646 109.585 215.745 108.967C216.901 108.329 217.882 107.158 218.689 105.454C219.9 102.898 219.953 100.884 218.848 99.4123C217.762 97.9019 215.96 96.5506 213.442 95.3582L210.305 93.8724L204.28 106.595ZM218.533 76.5028L221.553 77.9336C222.986 78.6123 224.28 79.0352 225.433 79.2024C226.644 79.3491 227.722 79.1248 228.668 78.5296C229.653 77.9528 230.493 76.9285 231.19 75.4568C232.254 73.2106 232.314 71.4842 231.368 70.2775C230.479 69.0505 228.95 67.9233 226.781 66.8961L223.761 65.4652L218.533 76.5028Z" fill="black"/>
<path d="M150.596 67.7955L131.251 58.6328L117.659 87.3304L95.1769 76.6818L131.498 0L153.979 10.6486L140.469 39.1719L159.814 48.3346L173.324 19.8113L195.748 30.4323L159.427 107.114L137.003 96.4931L150.596 67.7955Z" fill="black"/>
</svg>
